<svg xmlns="http://www.w3.org/2000/svg" width="81" height="80" viewBox="0 0 81 80">
  <g fill="none" transform="rotate(-20 40.5 37.164)">
    <path fill="#95C571" d="M39.769,0 C17.8,0 0,17.8 0,39.768 C0,61.733 17.8,79.536 39.769,79.536 C61.734,79.536 79.537,61.733 79.537,39.768 C79.536,17.8 61.733,0 39.769,0 Z"/>
    <path fill="#FFFFFF" d="M61.3409859,23.6548727 C60.4623444,22.7817091 59.0378149,22.7817091 58.1589976,23.6548727 L31.2026243,50.4407707 L20.8410354,40.1448104 C19.9623938,39.2716468 18.5378643,39.2717341 17.659047,40.1448104 C16.7803177,41.0178868 16.7803177,42.4333935 17.659047,43.3065572 L29.6116301,55.1832598 C30.4900079,56.0563362 31.9155921,56.0557248 32.7936184,55.1832598 L61.3409859,26.8167068 C62.2197153,25.9436305 62.2196274,24.5280364 61.3409859,23.6548727 Z"/>
  </g>
</svg>
