<svg xmlns="http://www.w3.org/2000/svg" width="81" height="80" viewBox="0 0 81 80">
  <g fill="none" transform="rotate(-20 40.5 37.164)">
    <path fill="#ECAC2B" d="M39.769,0 C17.8,0 0,17.8 0,39.768 C0,61.733 17.8,79.536 39.769,79.536 C61.734,79.536 79.537,61.733 79.537,39.768 C79.536,17.8 61.733,0 39.769,0 Z"/>
    <g fill="#FFFFFF" transform="translate(35 17)">
      <path d="M5.03007812.287434896C2.55351562.287434896.620703125 1.61634115.620703125 3.97220052.620703125 11.1600911 1.46621094 21.4889974 1.46621094 28.6770833 1.46640625 30.5495443 3.09746094 31.3347005 5.03027344 31.3347005 6.47988281 31.3347005 8.53359375 30.5495443 8.53359375 28.6770833 8.53359375 21.4891927 9.37910156 11.1602865 9.37910156 3.97220052 9.37910156 1.61653646 7.3859375.287434896 5.03007812.287434896zM5.09082031 35.502474C2.43320313 35.502474.439648438 37.6165365.439648438 40.1536458.439648438 42.6302083 2.43300781 44.8048177 5.09082031 44.8048177 7.56738281 44.8048177 9.68164063 42.6302083 9.68164063 40.1536458 9.68164063 37.6165365 7.5671875 35.502474 5.09082031 35.502474z"/>
    </g>
  </g>
</svg>
