<svg xmlns="http://www.w3.org/2000/svg" width="81" height="80" viewBox="0 0 81 80">
  <g fill="none" transform="rotate(-20 40.5 37.164)">
    <path fill="#F34242" d="M39.769,0 C17.8,0 0,17.8 0,39.768 C0,61.733 17.8,79.536 39.769,79.536 C61.734,79.536 79.537,61.733 79.537,39.768 C79.536,17.8 61.733,0 39.769,0 Z"/>
    <path fill="#FFFFFF" d="M59.268461,20.7314549 C58.2930757,19.7561817 56.7287785,19.7561817 55.7533931,20.7314549 L40,36.4830362 L24.2466069,20.7314549 C23.2712215,19.7561817 21.7069243,19.7561817 20.731539,20.7314549 C19.7561537,21.706728 19.7561537,23.2708453 20.731539,24.2461185 L36.4849321,39.9976998 L20.731539,55.7492812 C19.7561537,56.7245543 19.7561537,58.2886717 20.731539,59.2639448 C21.2100299,59.7423807 21.8541523,60 22.4798712,60 C23.1055901,60 23.7497124,59.7607821 24.2282034,59.2639448 L39.9815965,43.5123634 L55.7349896,59.2639448 C56.2134806,59.7423807 56.8576029,60 57.4833218,60 C58.1274442,60 58.7531631,59.7607821 59.231654,59.2639448 C60.2070393,58.2886717 60.2070393,56.7245543 59.231654,55.7492812 L43.5150679,39.9976998 L59.268461,24.2461185 C60.2438463,23.2708453 60.2438463,21.706728 59.268461,20.7314549 Z"/>
  </g>
</svg>
