<svg xmlns="http://www.w3.org/2000/svg" width="36" height="36" viewBox="0 0 36 36">
  <g fill="none">
    <rect width="35.979" height="35.979" fill="#04A5DB"/>
    <path fill="#FFFFFF" d="M30.9820246,11.3299102 C30.9809582,10.5961719 30.3837199,10 29.6501847,10 C29.6495754,10 29.648966,10 29.6484582,10 L6.32996207,10.032043 C5.97423941,10.0325 5.63994644,10.1714883 5.3887316,10.4233633 C5.13756754,10.6752891 4.9995441,11.0099883 5.00000113,11.3656094 L5.01802848,24.4686445 C5.01848551,24.8243672 5.15747379,25.1586602 5.40934879,25.409875 C5.66076676,25.6606328 5.99465348,25.7986055 6.34976676,25.7986055 C6.35037613,25.7986055 6.35103629,25.7986055 6.3515441,25.7986055 L29.6699894,25.7665625 C30.4041847,25.7655469 31.0008136,25.1673945 30.9999504,24.4329961 L30.9820246,11.3299102 Z M28.1872785,11.3337695 L18.0010168,18.4149102 L7.79500113,11.3618008 L28.1872785,11.3337695 Z M22.3085871,19.7513203 L28.3500832,24.4366523 L7.63275504,24.4650898 L13.7110675,19.7513203 C14.0016379,19.5259023 14.0545519,19.107668 13.8291847,18.8169961 C13.6037668,18.5264258 13.1855324,18.4735117 12.8948605,18.6988789 L6.34880191,23.7754297 L6.33255191,11.9700586 L17.6234582,19.7729531 C17.7374113,19.8517148 17.8696964,19.8910195 18.0020324,19.8910195 C18.1349269,19.8910195 18.267923,19.8512578 18.38213,19.7718867 L29.6510988,11.938168 L29.6681613,23.7735508 L23.1246925,18.6989297 C22.8342746,18.4736133 22.4158371,18.5264766 22.1904699,18.8170469 C21.9650519,19.1076172 22.0179152,19.5259531 22.3085871,19.7513203 Z"/>
  </g>
</svg>
