<svg xmlns="http://www.w3.org/2000/svg" width="36" height="36" viewBox="0 0 36 36">
  <g fill="none">
    <rect width="35.979" height="35.979" fill="#04A5DB"/>
    <path fill="#FFFFFF" d="M4.76660526,26.6701579 C7.16107895,28.1887895 10.0014474,29.0676316 13.0462105,29.0676316 C21.6000789,29.0676316 28.5341053,22.1328158 28.5341053,13.5797368 C28.5341053,13.3661842 28.5296053,13.1542105 28.5213947,12.9428684 C28.8307895,12.6993947 30.7443158,11.1656842 31.2133421,10.1797105 C31.2133421,10.1797105 29.6594211,10.8255 28.1385789,10.9776316 C28.1355789,10.9776316 28.1318684,10.9783421 28.1288684,10.9783421 C28.1288684,10.9783421 28.1318684,10.9768421 28.1370789,10.9731316 C28.2772105,10.8795 30.2363684,9.54584211 30.5016316,7.95678947 C30.5016316,7.95678947 29.4025263,8.54344737 27.8636053,9.05668421 C27.6088421,9.14131579 27.3421579,9.22452632 27.0671842,9.30165789 C26.0752105,8.24297368 24.6652105,7.58218421 23.1000789,7.58218421 C20.0979474,7.58218421 17.6652632,10.0141579 17.6652632,13.014 C17.6652632,13.4373158 17.7139737,13.8493421 17.8061053,14.2449474 C17.3865789,14.2277368 10.9979211,13.8695526 6.65171053,8.60628947 C6.65171053,8.60628947 4.05418421,12.1523684 8.19963158,15.7987895 C8.19963158,15.7987895 6.93947368,15.7485789 5.85228947,15.099 C5.85228947,15.099 5.45297368,19.395 10.1475789,20.4933947 C10.1475789,20.4933947 9.22381579,20.8432895 7.75010526,20.5938158 C7.75010526,20.5938158 8.57423684,24.0649737 12.7451842,24.3893684 C12.7451842,24.3893684 9.447,27.3688421 4.76510526,26.6697632 L4.76660526,26.6701579 Z"/>
  </g>
</svg>
