<svg xmlns="http://www.w3.org/2000/svg" width="36" height="36" viewBox="0 0 36 36">
  <g fill="none">
    <rect width="35.979" height="35.979" fill="#04A5DB"/>
    <path fill="#FFFFFF" d="M25.3629956,21.4186047 C23.9800294,21.4186047 22.7468429,22.076412 21.9580029,23.0930233 L15.3527166,19.410299 C15.507489,18.9667774 15.5923642,18.4883721 15.5923642,17.9950166 C15.5923642,17.4966777 15.507489,17.0232558 15.3477239,16.5747508 L21.9480176,12.89701 C22.7318649,13.9186047 23.9700441,14.5813953 25.3580029,14.5813953 C27.7245228,14.5813953 29.6566814,12.6578073 29.6566814,10.2906977 C29.6566814,7.92358804 27.7295154,6 25.3580029,6 C22.9864905,6 21.0593245,7.92358804 21.0593245,10.2906977 C21.0593245,10.7890365 21.1441997,11.2674419 21.3039648,11.7109635 L14.7086637,15.3887043 C13.9248164,14.3621262 12.6866373,13.7043189 11.2986784,13.7043189 C8.93215859,13.7043189 7,15.627907 7,17.9950166 C7,20.3621262 8.93215859,22.2857143 11.3036711,22.2857143 C12.69163,22.2857143 13.9298091,21.6229236 14.718649,20.5963455 L21.3189427,24.2790698 C21.1591777,24.7275748 21.0693098,25.2109635 21.0693098,25.7093023 C21.0693098,28.0714286 22.9964758,30 25.3679883,30 C27.7395007,30 29.6666667,28.076412 29.6666667,25.7093023 C29.6666667,23.3421927 27.7345081,21.4186047 25.3629956,21.4186047 Z M25.3629956,7.35049834 C26.9906021,7.35049834 28.3136564,8.67109635 28.3136564,10.2956811 C28.3136564,11.9202658 26.9906021,13.2408638 25.3629956,13.2408638 C23.7353891,13.2408638 22.4123348,11.9202658 22.4123348,10.2956811 C22.4123348,8.67109635 23.7403818,7.35049834 25.3629956,7.35049834 Z M11.3036711,20.9401993 C9.67606461,20.9401993 8.35301028,19.6196013 8.35301028,17.9950166 C8.35301028,16.3704319 9.67606461,15.0498339 11.3036711,15.0498339 C12.9312775,15.0498339 14.2543319,16.3704319 14.2543319,17.9950166 C14.2543319,19.6196013 12.9262849,20.9401993 11.3036711,20.9401993 Z M25.3629956,28.6495017 C23.7353891,28.6495017 22.4123348,27.3289037 22.4123348,25.7043189 C22.4123348,24.0797342 23.7353891,22.7591362 25.3629956,22.7591362 C26.9906021,22.7591362 28.3136564,24.0797342 28.3136564,25.7043189 C28.3136564,27.3289037 26.9906021,28.6495017 25.3629956,28.6495017 Z"/>
  </g>
</svg>
