<svg xmlns="http://www.w3.org/2000/svg" width="36" height="36" viewBox="0 0 36 36">
  <g fill="none">
    <rect width="35.979" height="35.979" fill="#04A5DB"/>
    <g fill="#FFFFFF" transform="translate(7.263 4.974)">
      <path d="M13.5204474 18.0579474C13.5196579 17.9237368 13.4801842 17.784 13.4304474 17.6584737 13.3641316 17.4934737 13.2220263 17.4113684 13.0436053 17.394 12.8343947 17.3734737 12.6670263 17.4579474 12.5154474 17.5921579 12.4546579 17.6450526 12.4270263 17.724 12.4270263 17.724L12.4301842 21.9847895 12.4301842 22.0897895C12.4301842 22.0897895 12.4665 22.1387368 12.4720263 22.1450526 12.5951842 22.2784737 12.7388684 22.3842632 12.9228158 22.4221579 13.2259737 22.4845263 13.4399211 22.3582105 13.4991316 22.0771579 13.5141316 22.0068947 13.5228158 21.9342632 13.5228158 21.8624211 13.5243947 20.5937368 13.5267632 19.3258421 13.5204474 18.0579474zM13.5204474 18.0579474C13.5196579 17.9237368 13.4801842 17.784 13.4304474 17.6584737 13.3641316 17.4934737 13.2220263 17.4113684 13.0436053 17.394 12.8343947 17.3734737 12.6670263 17.4579474 12.5154474 17.5921579 12.4546579 17.6450526 12.4270263 17.724 12.4270263 17.724L12.4301842 21.9847895 12.4301842 22.0897895C12.4301842 22.0897895 12.4665 22.1387368 12.4720263 22.1450526 12.5951842 22.2784737 12.7388684 22.3842632 12.9228158 22.4221579 13.2259737 22.4845263 13.4399211 22.3582105 13.4991316 22.0771579 13.5141316 22.0068947 13.5228158 21.9342632 13.5228158 21.8624211 13.5243947 20.5937368 13.5267632 19.3258421 13.5204474 18.0579474zM18.2912368 11.6324211C13.2488684 11.5242632 8.20413158 11.5242632 3.16097368 11.6324211 1.4115 11.6695263.0125526316 13.1000526.0125526316 14.8503158L.0125526316 22.7261053C.0125526316 24.4771579 1.4115 25.9076842 3.16097368 25.9447895 8.20413158 26.0529474 13.2488684 26.0529474 18.2912368 25.9447895 20.0415 25.9076842 21.4404474 24.4771579 21.4404474 22.7261053L21.4404474 14.8503158C21.4404474 13.1001316 20.0415 11.6695263 18.2912368 11.6324211zM4.64202632 23.4438158L3.18781579 23.4438158 3.18781579 15.2230263 1.68228947 15.2230263 1.68228947 13.8477632 6.15071053 13.8477632 6.15071053 15.2198684 4.64202632 15.2198684 4.64202632 23.4438158 4.64202632 23.4438158zM9.84623684 20.0316316L9.84623684 23.4445263 8.55860526 23.4445263 8.55860526 22.6645263C8.51202632 22.7142632 8.48597368 22.7411053 8.4615 22.7687368 8.18439474 23.0813684 7.87018421 23.3418947 7.46913158 23.4800526 7.27334211 23.5471579 7.07202632 23.5700526 6.86597368 23.5345263 6.58492105 23.4879474 6.39623684 23.3261053 6.28255263 23.0703158 6.17676316 22.8342632 6.14992105 22.5816316 6.14913158 22.3274211 6.14597368 21.3879474 6.14755263 16.4158421 6.14755263 16.3676842L7.43202632 16.3676842C7.43439474 16.4111053 7.43913158 19.9803158 7.43992105 21.7211053 7.43992105 21.8158421 7.44071053 21.9129474 7.45965789 22.0053158 7.50702632 22.239 7.68623684 22.3392632 7.91123684 22.2571579 8.17018421 22.1624211 8.36755263 21.984 8.53334211 21.7700526 8.55781579 21.7392632 8.55781579 21.684 8.55781579 21.6397895L8.55781579 16.3597895 9.84623684 16.3566316C9.84623684 16.3567105 9.84623684 18.849 9.84623684 20.0316316zM14.7449211 22.7624211C14.5728158 23.2803158 14.1938684 23.544 13.6491316 23.5384737 13.2062368 23.5345263 12.8470263 23.3584737 12.5509737 23.0371579 12.5178158 23.0016316 12.4262368 22.9045263 12.4262368 22.9045263L12.4262368 23.4429474 11.1362368 23.4429474 11.1362368 13.8468947 12.4262368 13.8468947C12.4262368 14.8684737 12.4262368 17.0055789 12.4262368 17.0055789 12.4262368 17.0055789 12.4988684 16.8603158 12.5651842 16.7853158 12.7649211 16.5618947 13.0080789 16.389 13.3080789 16.3132105 13.8030789 16.1892632 14.3738684 16.3424211 14.6454474 16.9211053 14.8057105 17.2629474 14.8507105 17.6276842 14.8507105 17.9987368 14.8530789 19.3400526 14.8530789 20.6813684 14.8515 22.0226842 14.8507105 22.2737368 14.8246579 22.5217105 14.7449211 22.7624211zM19.5093947 22.4925C19.2859737 23.1469737 18.8241316 23.5101316 18.1467632 23.6096053 17.7267632 23.6711842 17.3107105 23.6625 16.9167632 23.4840789 16.3775526 23.2409211 16.0720263 22.8011842 15.9409737 22.2414474 15.8801842 21.9809211 15.8501842 21.7077632 15.8470263 21.4401316 15.8367632 20.3893421 15.8415 19.3377632 15.8438684 18.2869737 15.8446579 17.7375 15.9757105 17.2306579 16.3522895 16.8098684 16.7817632 16.3290789 17.3312368 16.1498684 17.9588684 16.1901316 18.1475526 16.2019737 18.3401842 16.2327632 18.5193947 16.2919737 19.1296579 16.4925 19.4557105 16.9496053 19.5836053 17.5559211 19.6325526 17.7896053 19.6507105 18.0319737 19.6546579 18.2711842 19.6649211 18.8317105 19.6507105 20.0672368 19.6507105 20.0672368L17.1804474 20.0672368 17.1804474 21.8380263C17.1804474 22.1561842 17.4378158 22.4135526 17.7559737 22.4135526 18.0733421 22.4135526 18.3307105 22.1561842 18.3307105 21.8380263L18.3307105 20.9277632 19.6578158 20.9277632C19.6578158 20.9276842 19.6775526 22.0022368 19.5093947 22.4925zM18.3307105 17.9751316C18.3307105 17.6577632 18.0733421 17.3996053 17.7559737 17.3996053 17.4378158 17.3996053 17.1804474 17.6577632 17.1804474 17.9751316L17.1804474 18.9690789 18.3307105 18.9690789 18.3307105 17.9751316zM13.4304474 17.6585526C13.3641316 17.4935526 13.2220263 17.4114474 13.0436053 17.3940789 12.8343947 17.3735526 12.6670263 17.4580263 12.5154474 17.5922368 12.4546579 17.6451316 12.4270263 17.7240789 12.4270263 17.7240789L12.4301842 21.9848684 12.4301842 22.0898684C12.4301842 22.0898684 12.4665 22.1388158 12.4720263 22.1451316 12.5951842 22.2785526 12.7388684 22.3843421 12.9228158 22.4222368 13.2259737 22.4846053 13.4399211 22.3582895 13.4991316 22.0772368 13.5141316 22.0069737 13.5228158 21.9343421 13.5228158 21.8625 13.5243947 20.5938158 13.5267632 19.3259211 13.5204474 18.0580263 13.5196579 17.9237368 13.4801842 17.784 13.4304474 17.6585526zM16.7279211 2.52552632L16.7275263 9.65005263 15.4073684 9.65005263 15.4089474 8.88465789C15.2629737 9.02842105 15.1383947 9.16271053 15.0015 9.28334211 14.7588158 9.49713158 14.4839211 9.65652632 14.1623684 9.71944737 13.6687105 9.816 13.2482368 9.65992105 13.0908158 9.14865789 13.0383947 8.97836842 13.0067368 8.79481579 13.0053947 8.61702632L13.0053947 2.52552632 14.3156053 2.52552632 14.3156053 7.95876316C14.3156053 8.03076316 14.3213684 8.10355263 14.334 8.17413158 14.3737895 8.39802632 14.5392632 8.50342105 14.7548684 8.42865789 15.0176842 8.33771053 15.2182105 8.15573684 15.3883421 7.94131579 15.4125 7.91068421 15.4081579 7.85352632 15.4081579 7.80860526L15.4081579 2.52552632 16.7279211 2.52552632zM5.80878947 3.76357895C5.52221053 2.55560526 4.92181579.00552631579 4.92181579.00552631579L3.41952632.00552631579C3.41952632.00552631579 4.57373684 3.83344737 5.08989474 5.54060526 5.10844737 5.60234211 5.11697368 5.66936842 5.11697368 5.73402632L5.11642105 9.64855263 6.50171053 9.64855263 6.50115789 5.73402632C6.50115789 5.66936842 6.50968421 5.60234211 6.52823684 5.54060526 7.04439474 3.83344737 8.19860526.00552631579 8.19860526.00552631579L6.69631579.00552631579C6.69631579.00552631579 6.09584211 2.55560526 5.80934211 3.76357895L5.80878947 3.76357895zM10.0067368 2.34718421L10.0067368 2.34718421C8.96273684 2.34718421 8.11642105 3.1935 8.11642105 4.2375L8.11642105 7.93689474C8.11642105 8.98089474 8.96273684 9.82721053 10.0067368 9.82721053L10.0067368 9.82721053C11.0507368 9.82721053 11.8970526 8.98089474 11.8970526 7.93689474L11.8970526 4.2375C11.8971316 3.1935 11.0507368 2.34718421 10.0067368 2.34718421zM10.5522632 8.01157895C10.5522632 8.31236842 10.3075263 8.55702632 10.0068158 8.55702632 9.70610526 8.55702632 9.46136842 8.31236842 9.46136842 8.01157895L9.46136842 4.16273684C9.46136842 3.86194737 9.70610526 3.61728947 10.0068158 3.61728947 10.3075263 3.61728947 10.5522632 3.86202632 10.5522632 4.16273684L10.5522632 8.01157895z"/>
    </g>
  </g>
</svg>
