<svg xmlns="http://www.w3.org/2000/svg" width="36" height="36" viewBox="0 0 36 36">
  <path fill="#04A5DB" d="M17.9889474,14.4118421 C16.0168421,14.4118421 14.4110526,16.0168421 14.4110526,17.9889474 C14.4110526,19.9618421 16.0168421,21.5676316 17.9889474,21.5676316 C19.9618421,21.5676316 21.5668421,19.9618421 21.5668421,17.9889474 C21.5668421,16.0168421 19.9618421,14.4118421 17.9889474,14.4118421 Z M17.9889474,14.4118421 C16.0168421,14.4118421 14.4110526,16.0168421 14.4110526,17.9889474 C14.4110526,19.9618421 16.0168421,21.5676316 17.9889474,21.5676316 C19.9618421,21.5676316 21.5668421,19.9618421 21.5668421,17.9889474 C21.5668421,16.0168421 19.9618421,14.4118421 17.9889474,14.4118421 Z M23.9494737,8.57842105 L12.0292105,8.57842105 C10.1265789,8.57842105 8.57842105,10.1265789 8.57842105,12.0292105 L8.57842105,23.9494737 C8.57842105,25.8521053 10.1265789,27.4002632 12.0292105,27.4002632 L23.9494737,27.4002632 C25.8521053,27.4002632 27.4002632,25.8521053 27.4002632,23.9494737 L27.4002632,12.0292105 C27.4002632,10.1265789 25.8521053,8.57842105 23.9494737,8.57842105 Z M17.9889474,24.1855263 C14.5728947,24.1855263 11.7931579,21.4057895 11.7931579,17.9889474 C11.7931579,14.5728947 14.5728947,11.7931579 17.9889474,11.7931579 C21.4057895,11.7931579 24.1855263,14.5728947 24.1855263,17.9889474 C24.1855263,21.4057895 21.4057895,24.1855263 17.9889474,24.1855263 Z M24.3844737,13.0744737 C23.5760526,13.0744737 22.9184211,12.4168421 22.9184211,11.6084211 C22.9184211,10.8 23.5760526,10.1423684 24.3844737,10.1423684 C25.1928947,10.1423684 25.8505263,10.8 25.8505263,11.6084211 C25.8505263,12.4168421 25.1928947,13.0744737 24.3844737,13.0744737 Z M17.9889474,14.4118421 C16.0168421,14.4118421 14.4110526,16.0168421 14.4110526,17.9889474 C14.4110526,19.9618421 16.0168421,21.5676316 17.9889474,21.5676316 C19.9618421,21.5676316 21.5668421,19.9618421 21.5668421,17.9889474 C21.5668421,16.0168421 19.9618421,14.4118421 17.9889474,14.4118421 Z M23.9494737,8.57842105 L12.0292105,8.57842105 C10.1265789,8.57842105 8.57842105,10.1265789 8.57842105,12.0292105 L8.57842105,23.9494737 C8.57842105,25.8521053 10.1265789,27.4002632 12.0292105,27.4002632 L23.9494737,27.4002632 C25.8521053,27.4002632 27.4002632,25.8521053 27.4002632,23.9494737 L27.4002632,12.0292105 C27.4002632,10.1265789 25.8521053,8.57842105 23.9494737,8.57842105 Z M17.9889474,24.1855263 C14.5728947,24.1855263 11.7931579,21.4057895 11.7931579,17.9889474 C11.7931579,14.5728947 14.5728947,11.7931579 17.9889474,11.7931579 C21.4057895,11.7931579 24.1855263,14.5728947 24.1855263,17.9889474 C24.1855263,21.4057895 21.4057895,24.1855263 17.9889474,24.1855263 Z M24.3844737,13.0744737 C23.5760526,13.0744737 22.9184211,12.4168421 22.9184211,11.6084211 C22.9184211,10.8 23.5760526,10.1423684 24.3844737,10.1423684 C25.1928947,10.1423684 25.8505263,10.8 25.8505263,11.6084211 C25.8505263,12.4168421 25.1928947,13.0744737 24.3844737,13.0744737 Z M17.9889474,14.4118421 C16.0168421,14.4118421 14.4110526,16.0168421 14.4110526,17.9889474 C14.4110526,19.9618421 16.0168421,21.5676316 17.9889474,21.5676316 C19.9618421,21.5676316 21.5668421,19.9618421 21.5668421,17.9889474 C21.5668421,16.0168421 19.9618421,14.4118421 17.9889474,14.4118421 Z M0,0 L0,35.9786842 L35.9786842,35.9786842 L35.9786842,0 L0,0 Z M30.0181579,23.9494737 C30.0181579,27.2960526 27.2960526,30.0181579 23.9494737,30.0181579 L12.0292105,30.0181579 C8.68263158,30.0181579 5.96052632,27.2960526 5.96052632,23.9494737 L5.96052632,12.0292105 C5.96052632,8.68263158 8.68263158,5.96052632 12.0292105,5.96052632 L23.9494737,5.96052632 C27.2960526,5.96052632 30.0181579,8.68263158 30.0181579,12.0292105 L30.0181579,23.9494737 Z M23.9494737,8.57842105 L12.0292105,8.57842105 C10.1265789,8.57842105 8.57842105,10.1265789 8.57842105,12.0292105 L8.57842105,23.9494737 C8.57842105,25.8521053 10.1265789,27.4002632 12.0292105,27.4002632 L23.9494737,27.4002632 C25.8521053,27.4002632 27.4002632,25.8521053 27.4002632,23.9494737 L27.4002632,12.0292105 C27.4002632,10.1265789 25.8521053,8.57842105 23.9494737,8.57842105 Z M17.9889474,24.1855263 C14.5728947,24.1855263 11.7931579,21.4057895 11.7931579,17.9889474 C11.7931579,14.5728947 14.5728947,11.7931579 17.9889474,11.7931579 C21.4057895,11.7931579 24.1855263,14.5728947 24.1855263,17.9889474 C24.1855263,21.4057895 21.4057895,24.1855263 17.9889474,24.1855263 Z M24.3844737,13.0744737 C23.5760526,13.0744737 22.9184211,12.4168421 22.9184211,11.6084211 C22.9184211,10.8 23.5760526,10.1423684 24.3844737,10.1423684 C25.1928947,10.1423684 25.8505263,10.8 25.8505263,11.6084211 C25.8505263,12.4168421 25.1928947,13.0744737 24.3844737,13.0744737 Z M17.9889474,14.4118421 C16.0168421,14.4118421 14.4110526,16.0168421 14.4110526,17.9889474 C14.4110526,19.9618421 16.0168421,21.5676316 17.9889474,21.5676316 C19.9618421,21.5676316 21.5668421,19.9618421 21.5668421,17.9889474 C21.5668421,16.0168421 19.9618421,14.4118421 17.9889474,14.4118421 Z M17.9889474,14.4118421 C16.0168421,14.4118421 14.4110526,16.0168421 14.4110526,17.9889474 C14.4110526,19.9618421 16.0168421,21.5676316 17.9889474,21.5676316 C19.9618421,21.5676316 21.5668421,19.9618421 21.5668421,17.9889474 C21.5668421,16.0168421 19.9618421,14.4118421 17.9889474,14.4118421 Z M17.9889474,14.4118421 C16.0168421,14.4118421 14.4110526,16.0168421 14.4110526,17.9889474 C14.4110526,19.9618421 16.0168421,21.5676316 17.9889474,21.5676316 C19.9618421,21.5676316 21.5668421,19.9618421 21.5668421,17.9889474 C21.5668421,16.0168421 19.9618421,14.4118421 17.9889474,14.4118421 Z M23.9494737,8.57842105 L12.0292105,8.57842105 C10.1265789,8.57842105 8.57842105,10.1265789 8.57842105,12.0292105 L8.57842105,23.9494737 C8.57842105,25.8521053 10.1265789,27.4002632 12.0292105,27.4002632 L23.9494737,27.4002632 C25.8521053,27.4002632 27.4002632,25.8521053 27.4002632,23.9494737 L27.4002632,12.0292105 C27.4002632,10.1265789 25.8521053,8.57842105 23.9494737,8.57842105 Z M17.9889474,24.1855263 C14.5728947,24.1855263 11.7931579,21.4057895 11.7931579,17.9889474 C11.7931579,14.5728947 14.5728947,11.7931579 17.9889474,11.7931579 C21.4057895,11.7931579 24.1855263,14.5728947 24.1855263,17.9889474 C24.1855263,21.4057895 21.4057895,24.1855263 17.9889474,24.1855263 Z M24.3844737,13.0744737 C23.5760526,13.0744737 22.9184211,12.4168421 22.9184211,11.6084211 C22.9184211,10.8 23.5760526,10.1423684 24.3844737,10.1423684 C25.1928947,10.1423684 25.8505263,10.8 25.8505263,11.6084211 C25.8505263,12.4168421 25.1928947,13.0744737 24.3844737,13.0744737 Z M17.9889474,14.4118421 C16.0168421,14.4118421 14.4110526,16.0168421 14.4110526,17.9889474 C14.4110526,19.9618421 16.0168421,21.5676316 17.9889474,21.5676316 C19.9618421,21.5676316 21.5668421,19.9618421 21.5668421,17.9889474 C21.5668421,16.0168421 19.9618421,14.4118421 17.9889474,14.4118421 Z M17.9889474,14.4118421 C16.0168421,14.4118421 14.4110526,16.0168421 14.4110526,17.9889474 C14.4110526,19.9618421 16.0168421,21.5676316 17.9889474,21.5676316 C19.9618421,21.5676316 21.5668421,19.9618421 21.5668421,17.9889474 C21.5668421,16.0168421 19.9618421,14.4118421 17.9889474,14.4118421 Z M17.9889474,14.4118421 C16.0168421,14.4118421 14.4110526,16.0168421 14.4110526,17.9889474 C14.4110526,19.9618421 16.0168421,21.5676316 17.9889474,21.5676316 C19.9618421,21.5676316 21.5668421,19.9618421 21.5668421,17.9889474 C21.5668421,16.0168421 19.9618421,14.4118421 17.9889474,14.4118421 Z M23.9494737,8.57842105 L12.0292105,8.57842105 C10.1265789,8.57842105 8.57842105,10.1265789 8.57842105,12.0292105 L8.57842105,23.9494737 C8.57842105,25.8521053 10.1265789,27.4002632 12.0292105,27.4002632 L23.9494737,27.4002632 C25.8521053,27.4002632 27.4002632,25.8521053 27.4002632,23.9494737 L27.4002632,12.0292105 C27.4002632,10.1265789 25.8521053,8.57842105 23.9494737,8.57842105 Z M17.9889474,24.1855263 C14.5728947,24.1855263 11.7931579,21.4057895 11.7931579,17.9889474 C11.7931579,14.5728947 14.5728947,11.7931579 17.9889474,11.7931579 C21.4057895,11.7931579 24.1855263,14.5728947 24.1855263,17.9889474 C24.1855263,21.4057895 21.4057895,24.1855263 17.9889474,24.1855263 Z M24.3844737,13.0744737 C23.5760526,13.0744737 22.9184211,12.4168421 22.9184211,11.6084211 C22.9184211,10.8 23.5760526,10.1423684 24.3844737,10.1423684 C25.1928947,10.1423684 25.8505263,10.8 25.8505263,11.6084211 C25.8505263,12.4168421 25.1928947,13.0744737 24.3844737,13.0744737 Z M17.9889474,14.4118421 C16.0168421,14.4118421 14.4110526,16.0168421 14.4110526,17.9889474 C14.4110526,19.9618421 16.0168421,21.5676316 17.9889474,21.5676316 C19.9618421,21.5676316 21.5668421,19.9618421 21.5668421,17.9889474 C21.5668421,16.0168421 19.9618421,14.4118421 17.9889474,14.4118421 Z"/>
</svg>
