<svg xmlns="http://www.w3.org/2000/svg" width="36" height="36" viewBox="0 0 36 36">
  <g fill="none">
    <rect width="35.979" height="35.979" fill="#04A5DB"/>
    <g fill="#FFFFFF" transform="translate(5.368 5.447)">
      <path d="M3.09907895.0169736842C4.74694737.0183157895 6.10602632 1.37936842 6.10247368 3.03544737 6.09852632 4.76952632 4.65947368 6.0765 3.07878947 6.03884211 1.47552632 6.07128947.0665526316 4.73218421.0668684211 3.024.0668684211 1.36728947 1.43123684.0157105263 3.09907895.0169736842zM4.84981579 25.0635L1.31921053 25.0635C.861 25.0635.489552632 24.6920526.489552632 24.2338421L.489552632 9.17210526C.489552632 8.71389474.861 8.34244737 1.31921053 8.34244737L4.84981579 8.34244737C5.30802632 8.34244737 5.67947368 8.71389474 5.67947368 9.17210526L5.67947368 24.2339211C5.67939474 24.6920526 5.30802632 25.0635 4.84981579 25.0635zM25.1750526 13.6327895C25.1750526 10.4752105 22.6153421 7.91542105 19.4576842 7.91542105L18.5521579 7.91542105C16.8246316 7.91542105 15.2984211 8.77736842 14.3804211 10.0948421 14.2803158 10.2384474 14.1876316 10.3875789 14.1025263 10.5415263 14.0730789 10.5371053 14.0556316 10.5348158 14.0552368 10.5356053L14.0552368 8.68681579C14.0552368 8.49663158 13.9010526 8.34236842 13.7107895 8.34236842L9.30592105 8.34236842C9.11573684 8.34236842 8.96147368 8.49655263 8.96147368 8.68681579L8.96147368 24.7192105C8.96147368 24.9093947 9.11557895 25.0635789 9.30576316 25.0636579L13.8066316 25.0647632C13.9968947 25.0648421 14.1511579 24.9105789 14.1511579 24.7203158L14.1511579 15.4579737C14.1511579 13.8569211 15.4281316 12.5275263 17.0291053 12.5094474 17.8463684 12.5002105 18.5872895 12.8276842 19.1212895 13.362 19.6482632 13.8886579 19.9740789 14.6168684 19.9740789 15.4208684L19.9740789 24.7215C19.9740789 24.9116842 20.1282632 25.0658684 20.3183684 25.0659474L24.8303684 25.0670526C25.0206316 25.0671316 25.1748947 24.9128684 25.1748947 24.7226053L25.1748947 13.6327895 25.1750526 13.6327895z"/>
    </g>
  </g>
</svg>
