<svg xmlns="http://www.w3.org/2000/svg" width="36" height="36" viewBox="0 0 36 36">
  <g fill="none">
    <rect width="35.979" height="35.979" fill="#04A5DB"/>
    <path fill="#FFFFFF" d="M3.91910526,12.4013684 L5.31063158,14.1756316 C5.31063158,14.1756316 7.05007895,12.8188421 7.67628947,12.8188421 C8.06526316,12.8188421 8.89389474,13.2711316 9.41573684,14.8365789 C9.93757895,16.4021053 12.1347632,24.5171053 12.2684211,24.8906053 C12.8689737,26.5690263 13.6599474,29.6914737 16.0952368,30.1437632 C18.5305263,30.5960526 21.6266842,28.1260263 23.3313158,26.3169474 C25.0359474,24.5079474 31.7502632,16.7847632 32.0285526,12.1578158 C32.2859211,7.87957895 30.8824737,6.88689474 30.2542895,6.48718421 C29.1062368,5.75660526 27.1928684,5.51313158 25.3838684,6.13926316 C23.5748684,6.76539474 20.8265526,8.81802632 20.0959737,12.4708421 C20.0959737,12.4708421 22.566,11.5663421 23.4705,12.4360263 C24.375,13.3057105 24.1315263,15.2191579 23.3661316,16.6455 C22.6007368,18.0718421 20.4438947,21.3768158 19.6436842,21.4811842 C18.8435526,21.5855526 18.2173421,20.0200263 18.1129737,19.6025526 C18.0086053,19.1850789 16.6866316,13.4448947 16.1996053,10.1051842 C15.7125789,6.76547368 13.5904737,6.20881579 12.5815263,6.20881579 C11.5726579,6.20889474 9.83321053,6.97428947 3.91910526,12.4013684 Z"/>
  </g>
</svg>
