<svg xmlns="http://www.w3.org/2000/svg" width="36" height="36" viewBox="0 0 36 36">
  <g fill="none">
    <rect width="35.979" height="35.979" fill="#04A5DB"/>
    <path fill="#FFFFFF" d="M12.6790263,30.1578947 C6.80707895,27.7041316 2.98476316,20.7112895 5.41563158,13.6091053 C7.82028947,6.5835 15.5991316,2.90431579 22.6033421,5.50531579 C29.6274474,8.11373684 33.1016053,15.8642368 30.3785526,22.8121579 C27.5594211,30.0052105 20.0015526,32.5501579 14.3348684,30.7556053 C14.7585,29.7093158 15.2405526,28.6769211 15.5936842,27.6022105 C15.9483158,26.5228421 16.1744211,25.4013158 16.4403947,24.3624474 C16.6693421,24.5550789 16.8993947,24.7593158 17.1403421,24.9497368 C18.3925263,25.9393421 19.8091579,26.0354211 21.2933684,25.6785789 C22.8705,25.2993947 24.1168421,24.4051579 25.0398158,23.0906842 C26.6008421,20.8675263 27.1517368,18.3523421 26.7744474,15.7054737 C26.3842895,12.9685263 24.7637368,10.9878947 22.2231316,9.99055263 C18.3952105,8.48786842 14.7663158,8.99376316 11.6229474,11.7478421 C9.20542105,13.866 8.39273684,17.4568421 9.55555263,20.2523684 C9.95857895,21.2213684 10.5955263,21.9818684 11.5591579,22.4388158 C12.0475263,22.6703684 12.2548421,22.5759474 12.3961579,22.0658684 C12.4066579,22.0278947 12.4194474,21.9904737 12.4333421,21.9536053 C12.7039737,21.2399211 12.6408158,20.6531842 12.1591579,19.9642105 C11.2814211,18.7084737 11.4379737,17.2548158 11.8614474,15.8620263 C12.6645,13.2208421 15.0242368,11.4585789 17.7916579,11.433 C18.5329737,11.4261316 19.2960789,11.4896842 20.0140263,11.6648684 C22.1494737,12.1858421 23.5282895,13.8373421 23.6664474,16.0269474 C23.7772895,17.7828947 23.5028684,19.4887105 22.7394474,21.0921316 C22.3614474,21.8859474 21.8625789,22.5918158 21.1200789,23.0914737 C20.4225789,23.5608158 19.6598684,23.7499737 18.8322632,23.5337368 C17.6920263,23.2357895 17.0447368,22.1955789 17.3331316,21.0542368 C17.6320263,19.8712105 18.0187895,18.7102895 18.312,17.5260789 C18.4359474,17.0252368 18.5010789,16.4812895 18.4502368,15.9711316 C18.3115263,14.5815789 16.9986316,13.9335789 15.7713158,14.6119737 C14.9116579,15.0871579 14.4977368,15.8813684 14.3057368,16.8003158 C14.1079737,17.7470526 14.2037368,18.6801316 14.5117895,19.5981316 C14.5736842,19.7826316 14.5828421,20.0105526 14.5391842,20.2008158 C13.9815789,22.6323158 13.3852105,25.0552895 12.8571316,27.4931053 C12.7030263,28.2045 12.7316053,28.9557632 12.6803684,29.6890263 C12.6706579,29.8293947 12.6790263,29.9711842 12.6790263,30.1578947 Z"/>
  </g>
</svg>
