<?xml version="1.0" encoding="UTF-8"?>
<svg width="370px" height="320px" viewBox="0 0 370 320" version="1.1" xmlns="http://www.w3.org/2000/svg" xmlns:xlink="http://www.w3.org/1999/xlink" style="background: #FFFFFF;">
    <!-- Generator: Sketch 47.1 (45422) - http://www.bohemiancoding.com/sketch -->
    <title>screenshot</title>
    <desc>Created with Sketch.</desc>
    <defs></defs>
    <g id="Page-1" stroke="none" stroke-width="1" fill="none" fill-rule="evenodd">
        <g id="screenshot">
            <g id="shutterstock_433438972" transform="translate(-25.000000, -40.000000)">
                <polyline id="Fill-3" fill="#B12530" points="241.316639 163.964935 241.316639 244.866719 356.64523 129.268297 356.64523 49.4903769 241.316639 163.964935"></polyline>
                <polyline id="Fill-4" fill="#169C96" points="344.559289 62.3114571 344.559289 6.31418607 236.653377 114.223878 292.209129 114.223878 344.559289 62.3114571"></polyline>
                <polyline id="Fill-5" fill="#F3BB27" points="121.524685 81.0888941 133.657004 81.0888941 133.657004 68.9566851 121.524685 81.0888941"></polyline>
                <polyline id="Fill-6" fill="#E15A3C" points="127.695592 277.823787 75.3618246 277.823787 24.6648367 327.997038 24.6648367 331.184717 74.3359389 331.184717 127.695592 277.823787"></polyline>
                <polyline id="Fill-7" fill="#DE4345" points="299.683383 186.377437 299.683383 186.4558 241.316639 244.823539 241.316639 314.085279 356.821142 198.500051 356.821142 129.237511 299.683383 186.377437"></polyline>
                <polyline id="Fill-10" fill="#DB372A" points="357.04503 48.5344332 276.344282 129.237511 357.04503 129.237511 357.04503 48.5344332"></polyline>
                <polyline id="Fill-11" fill="#177F81" points="107.595268 339.828591 149.522651 297.900204 107.595268 297.900204 107.595268 339.828591"></polyline>
                <polyline id="Fill-13" fill="#F3BB27" points="155.255778 204.117369 139.76914 204.117369 155.255778 219.150993 155.255778 204.117369"></polyline>
                <polyline id="Fill-14" fill="#DB372A" points="139.407721 372.957977 241.569712 270.868307 241.569712 219.607975 190.454534 270.724376 190.454534 270.792743 139.407721 321.840777 139.407721 372.957977"></polyline>
                <polyline id="Fill-15" fill="#DB372A" points="163.420885 241.453948 163.420885 298.55869 241.55412 220.242472 241.55412 163.13773 163.420885 241.453948"></polyline>
                <polyline id="Fill-16" fill="#B12530" points="241.678058 270.500483 241.678058 372.782061 139.299376 372.642128 241.678058 270.500483"></polyline>
                <polyline id="Fill-17" fill="#177F81" points="292.209129 113.874045 163.420885 113.874045 163.420885 242.467464 292.209129 113.874045"></polyline>
                <polyline id="Fill-18" fill="#EB8F2D" points="328.303437 227.335886 357.220942 198.290551 357.220942 227.335886 328.303437 227.335886"></polyline>
                <polyline id="Fill-19" fill="#46B7AD" points="208.770953 94.2985887 208.770953 141.899068 256.369894 94.2985887 256.369894 46.6985095 208.770953 94.2985887"></polyline>
                <polyline id="Fill-20" fill="#CA242A" points="219.511169 242.467464 163.420885 242.467464 163.420885 298.55869 219.511169 242.467464"></polyline>
                <polyline id="Fill-21" fill="#E15A3C" points="346.946092 304.972428 298.97014 353.156229 298.97014 304.972428 346.946092 304.972428"></polyline>
                <polyline id="Fill-22" fill="#F3BB27" points="273.187064 30.0364628 256.061248 30.0364628 256.061248 47.1622882 273.187064 30.0364628"></polyline>
                <polyline id="Fill-23" fill="#F3BB27" points="359.371864 256.501165 346.97008 256.501165 346.97008 268.902845 359.371864 256.501165"></polyline>
                <polyline id="Fill-24" fill="#177F81" points="236.893257 66.1972023 208.514282 66.1972023 208.514282 94.5768559 236.893257 66.1972023"></polyline>
                <polyline id="Fill-25" fill="#F5C383" points="386.490271 197.494531 357.04503 197.494531 357.04503 226.939276 386.490271 197.494531"></polyline>
                <polyline id="Fill-26" fill="#E36540" points="325.192996 255.972218 299.381134 255.972218 299.381134 281.784697 325.192996 255.972218"></polyline>
                <polyline id="Fill-27" fill="#177F81" points="180.785381 113.861251 107.842743 186.752058 107.842743 223.351388 144.33845 186.854809 144.33845 186.806032 180.785381 150.35823 180.785381 113.861251"></polyline>
                <polyline id="Fill-28" fill="#173846" points="163.640375 207.753634 163.640375 166.981095 107.853538 222.898405 107.853538 263.670943 163.640375 207.753634"></polyline>
                <polyline id="Fill-29" fill="#173846" points="107.765182 187.014733 107.765182 113.987191 180.785381 113.861251 107.765182 187.014733"></polyline>
                <polyline id="Fill-30" fill="#CA242A" points="72.6323928 297.900204 163.640375 297.900204 163.640375 207.030379 72.6323928 297.900204"></polyline>
                <polyline id="Fill-31" fill="#DB372A" points="24.6648367 331.706468 78.5458287 277.824187 24.6648367 277.824187 24.6648367 331.706468"></polyline>
                <polyline id="Fill-32" fill="#46B7AD" points="65.8218066 164.070485 24.3553918 205.716606 24.3553918 164.070485 65.8218066 164.070485"></polyline>
                <polyline id="Fill-33" fill="#169C96" points="107.653638 122.455149 66.0089128 122.455149 66.0089128 122.511122 24.4193597 164.10127 66.064485 164.10127 66.064485 164.045697 107.653638 122.455149"></polyline>
                <polyline id="Fill-34" fill="#DB372A" points="107.734398 163.749438 107.734398 122.035349 65.8218066 163.403203 65.8218066 205.663031 107.734398 163.749438"></polyline>
                <polyline id="Fill-35" fill="#F3BB27" points="42.0393277 205.844145 24.3553918 205.844145 24.3553918 223.528504 42.0393277 205.844145"></polyline>
                <polyline id="Fill-36" fill="#F5C383" points="25.0330521 246.83258 25.0330521 222.197939 0.399 246.83258 0.399 271.467621 25.0330521 246.83258"></polyline>
                <polyline id="Fill-37" fill="#F5C383" points="395.445782 77.636542 395.445782 53.3577309 371.16995 77.636542 371.16995 101.914953 395.445782 77.636542"></polyline>
                <polyline id="Fill-38" fill="#46B7AD" points="88.3193297 84.8846823 88.3193297 60.606271 64.0410992 84.8846823 64.0410992 109.163493 88.3193297 84.8846823"></polyline>
                <polyline id="Fill-39" fill="#E36540" points="383.707665 256.372027 383.707665 232.093216 359.431834 256.372027 359.431834 280.650838 383.707665 256.372027"></polyline>
                <polyline id="Fill-40" fill="#EB9293" points="398.692154 155.869999 398.692154 114.223878 357.04503 155.869999 357.04503 197.51612 398.692154 155.869999"></polyline>
                <polyline id="Fill-41" fill="#14272E" points="123.592449 207.030379 163.640375 207.030379 163.640375 166.981095 123.592449 207.030379"></polyline>
                <polyline id="Fill-42" fill="#EB8F2D" points="24.3553918 205.716606 65.8214068 164.070485 65.8214068 205.716606 24.3553918 205.716606"></polyline>
                <polyline id="Fill-43" fill="#169C96" points="121.581057 80.8713979 107.365383 95.148583 107.365383 80.8713979 121.581057 80.8713979"></polyline>
                <polyline id="Fill-44" fill="#46B7AD" points="66.1292525 122.517519 107.595667 80.8713979 107.595667 122.517519 66.1292525 122.517519"></polyline>
                <polyline id="Fill-45" fill="#46B7AD" points="107.595268 340.242393 137.132062 340.242393 107.595268 368.915906 107.595268 340.242393"></polyline>
                <polyline id="Fill-46" fill="#DE4345" points="66.064485 247.078063 66.064485 247.02209 107.737596 205.347982 107.737596 163.617901 66.008513 205.347982 66.008513 205.403555 24.6648367 246.74862 24.6648367 288.478701 66.064485 247.078063"></polyline>
                <polyline id="Fill-47" fill="#F3BB27" points="328.567305 255.915445 328.567305 227.299504 357.220942 227.299504 328.567305 255.915445"></polyline>
                <polyline id="Fill-48" fill="#DB372A" points="194.769971 418.752118 241.752821 418.752118 241.752821 418.692147 299.281184 361.159609 299.281184 314.176835 241.690052 371.770544 194.769971 418.752118"></polyline>
                <polyline id="Fill-49" fill="#DF5455" points="288.389444 197.494531 357.101002 197.494531 357.101002 128.780929 288.389444 197.494531"></polyline>
                <polyline id="Fill-51" fill="#F3BB27" points="357.04503 128.495066 374.172445 128.495066 374.172445 111.36924 357.04503 128.495066"></polyline>
                <polyline id="Fill-52" fill="#173846" points="237.26467 66.2127948 208.77695 66.2127948 208.77695 37.7243931 237.26467 66.2127948"></polyline>
                <polyline id="Fill-53" fill="#631921" points="163.308541 241.389978 106.310312 298.389571 163.308541 298.389571 163.308541 241.389978"></polyline>
                <polyline id="Fill-54" fill="#173846" points="236.478265 114.223878 265.816759 84.8846823 236.478265 84.8846823 236.478265 114.223878"></polyline>
                <polyline id="Fill-55" fill="#CA242A" points="357.04503 48.1814017 315.997605 89.2306078 357.04503 89.2306078 357.04503 48.1814017"></polyline>
                <polyline id="Fill-56" fill="#F6F6F4" points="346.342395 76.7665573 342.816162 76.8053387 342.776182 73.2790219 346.302415 73.2398406 346.342395 76.7665573"></polyline>
                <polygon id="Fill-57" fill="#DB372A" points="214.711175 344.734649 218.237808 344.734649 218.237808 341.207932 214.711175 341.207932"></polygon>
                <polyline id="Fill-58" fill="#EB8F2D" points="241.716439 371.742557 299.281184 314.176835 241.716439 314.176835 241.716439 371.742557"></polyline>
                <polyline id="Fill-59" fill="#631921" points="241.678058 311.658037 241.678058 372.782061 180.496725 372.698101 241.678058 311.658037"></polyline>
                <polyline id="Fill-61" fill="#CA242A" points="220.057695 353.235391 222.773934 353.205406 222.803919 355.922109 220.08808 355.950095 220.057695 353.235391"></polyline>
                <polyline id="Fill-62" fill="#B12530" points="107.737996 205.317197 30.0225511 283.214014 107.584073 283.214014 107.737996 205.317197"></polyline>
                <polyline id="Fill-63" fill="#46B7AD" points="107.600465 297.900204 73.8593778 331.642098 73.8593778 374.049456 107.600465 340.306762 107.600465 297.900204"></polyline>
                <polyline id="Fill-64" fill="#F3BB27" points="299.281184 256.611113 299.281184 314.176835 241.716439 314.176835 299.281184 256.611113"></polyline>
                <polyline id="Fill-65" fill="#EB8F2D" points="347.05004 256.879784 298.866592 304.856884 347.05004 304.856884 347.05004 256.879784"></polyline>
                <polyline id="Fill-66" fill="#169C96" points="208.782947 12.978605 107.874328 113.889637 208.782947 113.889637 208.782947 12.978605"></polyline>
                <polyline id="Fill-67" fill="#46B7AD" points="107.874328 113.889637 133.845709 113.889637 133.845709 87.9176345 107.874328 113.889637"></polyline>
                <polyline id="Fill-68" fill="#F6F6F4" points="181.96479 78.5489065 178.438557 78.5880878 178.399377 75.061771 181.925609 75.0225897 181.96479 78.5489065"></polyline>
                <polyline id="Fill-69" fill="#46B7AD" points="310.96013 39.7382319 265.816759 84.8846823 310.96013 84.8846823 310.96013 39.7382319"></polyline>
                <polygon id="Fill-70" fill="#DB372A" points="78.5458287 258.602962 81.9921012 258.602962 81.9921012 255.156607 78.5458287 255.156607"></polygon>
                <polyline id="Fill-71" fill="#F3BB27" points="346.694218 304.563024 323.22998 304.563024 346.694218 281.784697 346.694218 304.563024"></polyline>
            </g>
            <path d="M109.289062,128 L94.1015625,128 L94.1015625,94.1796875 L108.890625,94.1796875 C115.453125,94.1796875 119.367188,97.390625 119.367188,102.617188 C119.367188,106.203125 116.71875,109.320312 113.25,109.835938 L113.25,110.257812 C117.726562,110.585938 120.984375,113.960938 120.984375,118.320312 C120.984375,124.25 116.507812,128 109.289062,128 Z M101.179688,99.59375 L101.179688,108.195312 L106.5,108.195312 C110.320312,108.195312 112.40625,106.625 112.40625,103.90625 C112.40625,101.210938 110.460938,99.59375 107.085938,99.59375 L101.179688,99.59375 Z M101.179688,122.585938 L107.484375,122.585938 C111.5625,122.585938 113.765625,120.875 113.765625,117.710938 C113.765625,114.617188 111.492188,112.976562 107.320312,112.976562 L101.179688,112.976562 L101.179688,122.585938 Z M155.109375,128 L152.554688,119.9375 L140.671875,119.9375 L138.070312,128 L130.96875,128 L142.710938,94.1796875 L151.03125,94.1796875 L162.773438,128 L155.109375,128 Z M146.4375,101.210938 L142.195312,114.476562 L151.054688,114.476562 L146.859375,101.210938 L146.4375,101.210938 Z M173.015625,118.601562 C173.273438,124.90625 178.5,128.867188 186.5625,128.867188 C195.046875,128.867188 200.273438,124.695312 200.273438,117.875 C200.273438,112.625 197.34375,109.695312 190.546875,108.265625 L186.46875,107.398438 C182.507812,106.554688 180.890625,105.359375 180.890625,103.273438 C180.890625,100.695312 183.234375,99.0546875 186.773438,99.0546875 C190.195312,99.0546875 192.679688,100.835938 193.007812,103.507812 L199.664062,103.507812 C199.453125,97.484375 194.179688,93.3125 186.726562,93.3125 C178.921875,93.3125 173.789062,97.5078125 173.789062,103.882812 C173.789062,109.039062 176.8125,112.25 182.976562,113.539062 L187.382812,114.476562 C191.53125,115.367188 193.21875,116.609375 193.21875,118.765625 C193.21875,121.320312 190.617188,123.101562 186.9375,123.101562 C182.953125,123.101562 180.1875,121.34375 179.859375,118.601562 L173.015625,118.601562 Z M235.359375,121.953125 L220.03125,121.953125 L220.03125,113.726562 L234.492188,113.726562 L234.492188,108.125 L220.03125,108.125 L220.03125,100.226562 L235.359375,100.226562 L235.359375,94.1796875 L212.953125,94.1796875 L212.953125,128 L235.359375,128 L235.359375,121.953125 Z" id="BASE" fill="#FFFFFF"></path>
            <path d="M91.9121094,139.499023 L97.7236328,139.499023 C102.332031,139.499023 105.017578,142.313477 105.017578,147.179688 C105.017578,152.15332 102.364258,155 97.7236328,155 L91.9121094,155 L91.9121094,139.499023 Z M94.6835938,141.894531 L94.6835938,152.604492 L97.3583984,152.604492 C100.441406,152.604492 102.192383,150.681641 102.192383,147.222656 C102.192383,143.838867 100.398438,141.894531 97.3583984,141.894531 L94.6835938,141.894531 Z M107.896484,155 L110.560547,155 L110.560547,148.210938 C110.560547,146.567383 111.763672,145.493164 113.493164,145.493164 C113.944336,145.493164 114.65332,145.568359 114.857422,145.643555 L114.857422,143.172852 C114.610352,143.097656 114.137695,143.054688 113.750977,143.054688 C112.236328,143.054688 110.96875,143.914062 110.646484,145.074219 L110.463867,145.074219 L110.463867,143.248047 L107.896484,143.248047 L107.896484,155 Z M127.264648,143.248047 L124.600586,143.248047 L124.600586,150.09082 C124.600586,151.831055 123.655273,152.894531 121.925781,152.894531 C120.335938,152.894531 119.594727,152.013672 119.594727,150.219727 L119.594727,143.248047 L116.930664,143.248047 L116.930664,150.885742 C116.930664,153.635742 118.43457,155.236328 121.001953,155.236328 C122.795898,155.236328 123.945312,154.473633 124.514648,153.130859 L124.697266,153.130859 L124.697266,155 L127.264648,155 L127.264648,143.248047 Z M136.932617,143.054688 C139.908203,143.054688 141.777344,145.353516 141.777344,149.124023 C141.777344,152.873047 139.929688,155.193359 136.964844,155.193359 C135.27832,155.193359 133.978516,154.462891 133.376953,153.216797 L133.194336,153.216797 L133.194336,158.910156 L130.530273,158.910156 L130.530273,143.248047 L133.097656,143.248047 L133.097656,145.192383 L133.280273,145.192383 C133.957031,143.860352 135.321289,143.054688 136.932617,143.054688 Z M136.094727,152.926758 C137.942383,152.926758 139.038086,151.498047 139.038086,149.124023 C139.038086,146.75 137.931641,145.321289 136.105469,145.321289 C134.290039,145.321289 133.151367,146.782227 133.140625,149.124023 C133.151367,151.476562 134.279297,152.926758 136.094727,152.926758 Z M148.469727,153.098633 C150.081055,153.098633 151.28418,152.056641 151.28418,150.692383 L151.28418,149.757812 L148.630859,149.929688 C147.137695,150.026367 146.439453,150.563477 146.439453,151.519531 C146.439453,152.507812 147.288086,153.098633 148.469727,153.098633 Z M147.685547,155.193359 C145.418945,155.193359 143.796875,153.818359 143.796875,151.669922 C143.796875,149.542969 145.397461,148.318359 148.254883,148.146484 L151.28418,147.963867 L151.28418,146.975586 C151.28418,145.826172 150.510742,145.181641 149.071289,145.181641 C147.84668,145.181641 147.008789,145.611328 146.761719,146.40625 L144.248047,146.40625 C144.462891,144.333008 146.407227,143.011719 149.200195,143.011719 C152.21875,143.011719 153.916016,144.483398 153.916016,146.975586 L153.916016,155 L151.348633,155 L151.348633,153.388672 L151.166016,153.388672 C150.510742,154.527344 149.22168,155.193359 147.685547,155.193359 Z M168.750977,155.386719 C165.195312,155.386719 162.746094,153.539062 162.746094,150.853516 C162.746094,148.887695 164.067383,147.330078 166.097656,146.900391 L166.097656,146.717773 C164.443359,146.30957 163.369141,144.966797 163.369141,143.3125 C163.369141,140.863281 165.614258,139.112305 168.761719,139.112305 C171.90918,139.112305 174.143555,140.863281 174.143555,143.3125 C174.143555,144.977539 173.09082,146.298828 171.425781,146.717773 L171.425781,146.900391 C173.445312,147.276367 174.777344,148.844727 174.777344,150.842773 C174.777344,153.539062 172.328125,155.386719 168.750977,155.386719 Z M168.761719,153.227539 C170.630859,153.227539 171.90918,152.164062 171.90918,150.617188 C171.90918,149.070312 170.620117,148.006836 168.761719,148.006836 C166.892578,148.006836 165.603516,149.070312 165.603516,150.617188 C165.603516,152.164062 166.892578,153.227539 168.761719,153.227539 Z M168.761719,145.879883 C170.330078,145.879883 171.415039,144.945312 171.415039,143.581055 C171.415039,142.195312 170.34082,141.239258 168.761719,141.239258 C167.171875,141.239258 166.097656,142.195312 166.097656,143.581055 C166.097656,144.945312 167.182617,145.879883 168.761719,145.879883 Z M190.579102,155 L183.951172,155 L183.951172,139.499023 L190.428711,139.499023 C193.37207,139.499023 195.144531,140.981445 195.144531,143.366211 C195.144531,144.999023 193.941406,146.438477 192.383789,146.685547 L192.383789,146.878906 C194.467773,147.072266 195.907227,148.576172 195.907227,150.595703 C195.907227,153.313477 193.887695,155 190.579102,155 Z M186.722656,141.701172 L186.722656,146.019531 L189.397461,146.019531 C191.363281,146.019531 192.405273,145.256836 192.405273,143.860352 C192.405273,142.496094 191.427734,141.701172 189.751953,141.701172 L186.722656,141.701172 Z M186.722656,152.797852 L189.945312,152.797852 C191.986328,152.797852 193.071289,151.959961 193.071289,150.380859 C193.071289,148.833984 191.954102,148.017578 189.837891,148.017578 L186.722656,148.017578 L186.722656,152.797852 Z M202.65332,153.098633 C204.264648,153.098633 205.467773,152.056641 205.467773,150.692383 L205.467773,149.757812 L202.814453,149.929688 C201.321289,150.026367 200.623047,150.563477 200.623047,151.519531 C200.623047,152.507812 201.47168,153.098633 202.65332,153.098633 Z M201.869141,155.193359 C199.602539,155.193359 197.980469,153.818359 197.980469,151.669922 C197.980469,149.542969 199.581055,148.318359 202.438477,148.146484 L205.467773,147.963867 L205.467773,146.975586 C205.467773,145.826172 204.694336,145.181641 203.254883,145.181641 C202.030273,145.181641 201.192383,145.611328 200.945312,146.40625 L198.431641,146.40625 C198.646484,144.333008 200.59082,143.011719 203.383789,143.011719 C206.402344,143.011719 208.099609,144.483398 208.099609,146.975586 L208.099609,155 L205.532227,155 L205.532227,153.388672 L205.349609,153.388672 C204.694336,154.527344 203.405273,155.193359 201.869141,155.193359 Z M211.032227,146.610352 C211.032227,148.382812 212.095703,149.424805 214.351562,149.94043 L216.435547,150.423828 C217.552734,150.670898 218.057617,151.089844 218.057617,151.755859 C218.057617,152.625977 217.123047,153.216797 215.780273,153.216797 C214.448242,153.216797 213.621094,152.701172 213.363281,151.831055 L210.731445,151.831055 C210.935547,153.96875 212.783203,155.236328 215.71582,155.236328 C218.648438,155.236328 220.72168,153.732422 220.72168,151.476562 C220.72168,149.74707 219.679688,148.780273 217.43457,148.275391 L215.361328,147.802734 C214.179688,147.53418 213.621094,147.125977 213.621094,146.459961 C213.621094,145.611328 214.53418,145.03125 215.748047,145.03125 C216.994141,145.03125 217.77832,145.557617 217.97168,146.384766 L220.474609,146.384766 C220.28125,144.24707 218.530273,143.011719 215.737305,143.011719 C212.96582,143.011719 211.032227,144.483398 211.032227,146.610352 Z M228.348633,145.12793 C226.758789,145.12793 225.641602,146.266602 225.523438,147.985352 L231.055664,147.985352 C231.001953,146.245117 229.949219,145.12793 228.348633,145.12793 Z M231.077148,151.766602 L233.601562,151.766602 C233.09668,153.904297 231.152344,155.236328 228.380859,155.236328 C224.921875,155.236328 222.837891,152.948242 222.837891,149.166992 C222.837891,145.385742 224.954102,143.011719 228.359375,143.011719 C231.710938,143.011719 233.719727,145.235352 233.719727,148.941406 L233.719727,149.800781 L225.512695,149.800781 L225.512695,149.94043 C225.577148,151.895508 226.705078,153.120117 228.456055,153.120117 C229.777344,153.120117 230.69043,152.636719 231.077148,151.766602 Z M243.108398,140.369141 L243.108398,143.323242 L241.25,143.323242 L241.25,145.450195 L243.108398,145.450195 L243.108398,151.863281 C243.108398,154.140625 244.182617,155.053711 246.878906,155.053711 C247.394531,155.053711 247.888672,155 248.275391,154.924805 L248.275391,152.84082 C247.953125,152.873047 247.749023,152.894531 247.373047,152.894531 C246.255859,152.894531 245.761719,152.378906 245.761719,151.21875 L245.761719,145.450195 L248.275391,145.450195 L248.275391,143.323242 L245.761719,143.323242 L245.761719,140.369141 L243.108398,140.369141 Z M251.046875,155 L253.710938,155 L253.710938,148.178711 C253.710938,146.492188 254.688477,145.353516 256.439453,145.353516 C257.986328,145.353516 258.802734,146.266602 258.802734,148.049805 L258.802734,155 L261.466797,155 L261.466797,147.416016 C261.466797,144.623047 259.941406,143.033203 257.427734,143.033203 C255.676758,143.033203 254.419922,143.828125 253.861328,145.149414 L253.667969,145.149414 L253.667969,138.704102 L251.046875,138.704102 L251.046875,155 Z M269.555664,145.12793 C267.96582,145.12793 266.848633,146.266602 266.730469,147.985352 L272.262695,147.985352 C272.208984,146.245117 271.15625,145.12793 269.555664,145.12793 Z M272.28418,151.766602 L274.808594,151.766602 C274.303711,153.904297 272.359375,155.236328 269.587891,155.236328 C266.128906,155.236328 264.044922,152.948242 264.044922,149.166992 C264.044922,145.385742 266.161133,143.011719 269.566406,143.011719 C272.917969,143.011719 274.926758,145.235352 274.926758,148.941406 L274.926758,149.800781 L266.719727,149.800781 L266.719727,149.94043 C266.78418,151.895508 267.912109,153.120117 269.663086,153.120117 C270.984375,153.120117 271.897461,152.636719 272.28418,151.766602 Z M277.601562,155 L280.265625,155 L280.265625,147.856445 C280.265625,146.416992 281.243164,145.332031 282.564453,145.332031 C283.875,145.332031 284.691406,146.116211 284.691406,147.405273 L284.691406,155 L287.280273,155 L287.280273,147.68457 C287.280273,146.341797 288.193359,145.332031 289.579102,145.332031 C291.007812,145.332031 291.727539,146.083984 291.727539,147.598633 L291.727539,155 L294.380859,155 L294.380859,146.921875 C294.380859,144.483398 292.962891,143.011719 290.610352,143.011719 C288.977539,143.011719 287.624023,143.860352 287.043945,145.149414 L286.861328,145.149414 C286.367188,143.828125 285.239258,143.011719 283.617188,143.011719 C282.05957,143.011719 280.856445,143.806641 280.351562,145.149414 L280.168945,145.149414 L280.168945,143.248047 L277.601562,143.248047 L277.601562,155 Z M302.469727,145.12793 C300.879883,145.12793 299.762695,146.266602 299.644531,147.985352 L305.176758,147.985352 C305.123047,146.245117 304.070312,145.12793 302.469727,145.12793 Z M305.198242,151.766602 L307.722656,151.766602 C307.217773,153.904297 305.273438,155.236328 302.501953,155.236328 C299.042969,155.236328 296.958984,152.948242 296.958984,149.166992 C296.958984,145.385742 299.075195,143.011719 302.480469,143.011719 C305.832031,143.011719 307.84082,145.235352 307.84082,148.941406 L307.84082,149.800781 L299.633789,149.800781 L299.633789,149.94043 C299.698242,151.895508 300.826172,153.120117 302.577148,153.120117 C303.898438,153.120117 304.811523,152.636719 305.198242,151.766602 Z" id="Drupa-8-Base-theme" fill="#FFFFFF"></path>
        </g>
    </g>
</svg>