<svg xmlns="http://www.w3.org/2000/svg" width="9" height="9" viewBox="0 0 9 9">
  <path fill="#004174" d="M11.7755563,4.12049652 L8.30371118,0.571220094 C8.09188523,0.354669864 7.74834615,0.354669864 7.5365202,0.571220094 C7.32465082,0.787814685 7.32465082,1.13892686 7.5365202,1.35552145 L10.082294,3.9580728 L0.810124147,3.9580728 C0.510547312,3.9580728 0.267648353,4.20638904 0.267648353,4.51264722 C0.267648353,4.81886106 0.510547312,5.0672217 0.810124147,5.0672217 L10.082294,5.0672217 L7.53660698,7.669773 C7.32473767,7.8863676 7.32473767,8.23747973 7.53660698,8.45407432 C7.64249828,8.5622829 7.78137203,8.61649815 7.9202025,8.61649815 C8.0590329,8.61649815 8.1978633,8.5622829 8.30379795,8.45407432 L11.7755563,4.90479792 C11.9874256,4.68820332 11.9874256,4.33709112 11.7755563,4.12049652 Z" transform="rotate(45 5.303 2.56)"/>
</svg>
